<svg width="1280" height="320" xmlns="http://www.w3.org/2000/svg">
  <!-- Background gradient -->
  <defs>
    <linearGradient id="bannerGrad" x1="0%" y1="0%" x2="100%" y2="100%">
      <stop offset="0%" style="stop-color:#6366f1;stop-opacity:1" />
      <stop offset="50%" style="stop-color:#8b5cf6;stop-opacity:1" />
      <stop offset="100%" style="stop-color:#ec4899;stop-opacity:1" />
    </linearGradient>
    
    <!-- Animated grid pattern -->
    <pattern id="bannerGrid" width="60" height="60" patternUnits="userSpaceOnUse">
      <path d="M 60 0 L 0 0 0 60" fill="none" stroke="rgba(255,255,255,0.05)" stroke-width="1"/>
    </pattern>
    
    <!-- Glow effect -->
    <filter id="glow">
      <feGaussianBlur stdDeviation="4" result="coloredBlur"/>
      <feMerge>
        <feMergeNode in="coloredBlur"/>
        <feMergeNode in="SourceGraphic"/>
      </feMerge>
    </filter>
  </defs>
  
  <!-- Background -->
  <rect width="1280" height="320" fill="url(#bannerGrad)"/>
  
  <!-- Grid pattern overlay -->
  <rect width="1280" height="320" fill="url(#bannerGrid)"/>
  
  <!-- Decorative elements -->
  <g opacity="0.1">
    <circle cx="100" cy="60" r="80" fill="white"/>
    <circle cx="1180" cy="260" r="100" fill="white"/>
    <circle cx="200" cy="280" r="60" fill="white"/>
    <circle cx="1100" cy="40" r="70" fill="white"/>
  </g>
  
  <!-- Main content -->
  <g>
    <!-- Logo icon (调整为 translate(80, 60)，视觉中心 = 140px) -->
    <g transform="translate(80, 60)">
      <rect width="160" height="160" rx="20" fill="rgba(255,255,255,0.15)"/>
      <g transform="translate(80, 80) scale(4)">
        <!-- Robot icon -->
        <rect x="-1" y="-11" width="2" height="3" rx="1" fill="white"/>
        <circle cx="0" cy="-12" r="1.5" fill="white" filter="url(#glow)"/>
        
        <rect x="-6" y="-8" width="12" height="10" rx="2" fill="white"/>
        
        <circle cx="-2.5" cy="-4" r="1.5" fill="#8b5cf6"/>
        <circle cx="2.5" cy="-4" r="1.5" fill="#8b5cf6"/>
        
        <rect x="-3" y="-1" width="6" height="1.5" rx="0.75" fill="white" opacity="0.8"/>
        
        <rect x="-5" y="3" width="10" height="6" rx="1" fill="white"/>
        
        <rect x="-8" y="4" width="2" height="4" rx="1" fill="white"/>
        <rect x="6" y="4" width="2" height="4" rx="1" fill="white"/>
        
        <circle cx="0" cy="6" r="1" fill="white" opacity="0.6"/>
      </g>
    </g>
    
    <!-- Title and description -->
    <g transform="translate(280, 0)">
      <text x="0" y="110" font-family="Arial, sans-serif" font-size="68" font-weight="bold" fill="white" filter="url(#glow)">
        Modern Mermaid
      </text>
      
      <text x="0" y="160" font-family="Arial, sans-serif" font-size="28" fill="rgba(255,255,255,0.95)">
        A modern, powerful, and beautiful Mermaid.js diagram editor
      </text>
      
      <g transform="translate(0, 190)">
        <rect x="0" y="0" width="140" height="36" rx="18" fill="rgba(255,255,255,0.2)"/>
        <text x="70" y="24" font-family="Arial, sans-serif" font-size="16" fill="white" text-anchor="middle" font-weight="500">
          10+ Themes
        </text>
        
        <rect x="150" y="0" width="160" height="36" rx="18" fill="rgba(255,255,255,0.2)"/>
        <text x="230" y="24" font-family="Arial, sans-serif" font-size="16" fill="white" text-anchor="middle" font-weight="500">
          Live Preview
        </text>
        
        <rect x="320" y="0" width="180" height="36" rx="18" fill="rgba(255,255,255,0.2)"/>
        <text x="410" y="24" font-family="Arial, sans-serif" font-size="16" fill="white" text-anchor="middle" font-weight="500">
          Advanced Export
        </text>
        
        <rect x="510" y="0" width="200" height="36" rx="18" fill="rgba(255,255,255,0.2)"/>
        <text x="610" y="24" font-family="Arial, sans-serif" font-size="16" fill="white" text-anchor="middle" font-weight="500">
          Annotation Tools
        </text>
      </g>
    </g>
  </g>
  
  <!-- Decorative diagram elements on the right -->
  <g transform="translate(1050, 100)" opacity="0.3">
    <path d="M 0 0 L 40 0 L 60 20 L 40 40 L 0 40 Z" fill="none" stroke="white" stroke-width="2"/>
    <circle cx="100" cy="20" r="20" fill="none" stroke="white" stroke-width="2"/>
    <rect x="70" y="60" width="60" height="40" fill="none" stroke="white" stroke-width="2"/>
    <line x1="20" y1="40" x2="100" y2="60" stroke="white" stroke-width="2" stroke-dasharray="5,5"/>
  </g>
</svg>
